<?xml version="1.0" encoding="iso-8859-1"?>
<!-- Generator: Adobe Illustrator 19.0.0, SVG Export Plug-In . SVG Version: 6.00 Build 0)  -->
<svg version="1.1" id="Capa_1" xmlns="http://www.w3.org/2000/svg" xmlns:xlink="http://www.w3.org/1999/xlink" x="0px" y="0px"
	 viewBox="0 0 454.477 566.967" style="enable-background:new 0 0 454.477 566.967;" xml:space="preserve">
<g id="XMLID_551_">
	<g id="XMLID_433_">
		<path id="XMLID_438_" style="fill:#7CBA37;" d="M320.199,339.569c0,0,64.637-31.887,81.011-11.204c0,0,22.783,13.384,2.991,48.1
			c0,0-11.031,32.77-58.726,71.055l-20.888,18.989c0,0,100.321-42.349,87.696,8.589l-1.918,1.622c0,0,12.654,13.627-11.68,21.089
			c0,0,4.867,20.765-21.414,17.52c-26.605-7.462-71.379-18.818-71.379-18.818s-30.174,6.165-32.121-9.734L320.199,339.569z"/>
		<path id="XMLID_437_" style="fill:none;stroke:#6C9B2E;stroke-linecap:round;stroke-linejoin:round;stroke-miterlimit:10;" d="
			M320.199,339.569c0,0,64.637-31.887,81.011-11.204c0,0,22.783,13.384,2.991,48.1c0,0-11.031,32.77-58.726,71.055l-20.888,18.989
			c0,0,100.321-42.349,87.696,8.589l-1.918,1.622c0,0,12.654,13.627-11.68,21.089c0,0,4.867,20.765-21.414,17.52
			c-26.605-7.462-71.379-18.818-71.379-18.818s-30.174,6.165-32.121-9.734L320.199,339.569z"/>
		<path id="XMLID_436_" style="fill:none;stroke:#6C9B2E;stroke-linecap:round;stroke-linejoin:round;stroke-miterlimit:10;" d="
			M384.896,360.383c0,0-12.133,30.661-56.421,54.508"/>
		<path id="XMLID_435_" style="fill:none;stroke:#6C9B2E;stroke-linecap:round;stroke-linejoin:round;stroke-miterlimit:10;" d="
			M371.431,474.427c0,0,24.496-10.339,38.934,2.293"/>
		<path id="XMLID_434_" style="fill:none;stroke:#6C9B2E;stroke-linecap:round;stroke-linejoin:round;stroke-miterlimit:10;" d="
			M371.431,486.756c0,0,20.765,0.692,27.254,11.053"/>
	</g>
	<g id="XMLID_427_">
		<path id="XMLID_432_" style="fill:#7CBA37;" d="M113.647,343.842c0,0-64.637-31.887-81.011-11.204c0,0-22.783,13.384-2.991,48.1
			c0,0,11.031,32.77,58.726,71.055l20.888,18.989c0,0-100.321-42.349-87.696,8.589l1.918,1.622c0,0-12.654,13.627,11.68,21.089
			c0,0-4.867,20.765,21.414,17.52c26.605-7.462,71.379-18.818,71.379-18.818s30.174,6.165,32.121-9.734L113.647,343.842z"/>
		<path id="XMLID_431_" style="fill:none;stroke:#6C9B2E;stroke-linecap:round;stroke-linejoin:round;stroke-miterlimit:10;" d="
			M113.647,343.842c0,0-64.637-31.887-81.011-11.204c0,0-22.783,13.384-2.991,48.1c0,0,11.031,32.77,58.726,71.055l20.888,18.989
			c0,0-100.321-42.349-87.696,8.589l1.918,1.622c0,0-12.654,13.627,11.68,21.089c0,0-4.867,20.765,21.414,17.52
			c26.605-7.462,71.379-18.818,71.379-18.818s30.174,6.165,32.121-9.734L113.647,343.842z"/>
		<path id="XMLID_430_" style="fill:none;stroke:#6C9B2E;stroke-linecap:round;stroke-linejoin:round;stroke-miterlimit:10;" d="
			M48.95,364.656c0,0,9.247,30.661,53.534,54.508"/>
		<path id="XMLID_429_" style="fill:none;stroke:#6C9B2E;stroke-linecap:round;stroke-linejoin:round;stroke-miterlimit:10;" d="
			M62.414,478.701c0,0-24.496-10.339-38.934,2.293"/>
		<path id="XMLID_428_" style="fill:none;stroke:#6C9B2E;stroke-linecap:round;stroke-linejoin:round;stroke-miterlimit:10;" d="
			M62.414,491.03c0,0-20.765,0.692-27.254,11.053"/>
	</g>
	<ellipse id="XMLID_426_" style="fill:#7CBA37;" cx="217.478" cy="369.438" rx="122.643" ry="124.426"/>
	
		<ellipse id="XMLID_425_" style="fill:none;stroke:#6C9B2E;stroke-linecap:round;stroke-linejoin:round;stroke-miterlimit:10;" cx="217.478" cy="369.438" rx="122.643" ry="124.426"/>
	<path id="XMLID_424_" style="fill:#D5DA36;" d="M228.895,488.291h-22.834c-51.65,0-100.079-45.567-100.079-97.216l0,0
		c0-51.65,47.3-134.83,98.669-106.965h35.599c49.929-6.745,84.761,57.987,84.761,109.636l0,0
		C325.011,445.396,280.544,488.291,228.895,488.291z"/>
	<path id="XMLID_423_" style="fill:#7CBA37;" d="M133.035,358.676c0.093-0.311,0.172-0.626,0.265-0.937
		c4.27-14.079,8.756-28.577,18.179-39.878c3.777-4.53,8.322-8.509,11.168-13.675c4.403-7.999,3.845-17.194,3.462-26.319
		c0,0-16.656-9.55-22.264-7.576c-3.118,1.096-29.847,27.605-35.124,40.212c-5.81,13.874-5.976,31.036-17.134,41.125
		C89.171,353.816,133.035,358.676,133.035,358.676z"/>
	<path id="XMLID_422_" style="fill:none;stroke:#6C9B2E;stroke-linecap:round;stroke-linejoin:round;stroke-miterlimit:10;" d="
		M133.035,358.676c0.093-0.311,0.172-0.626,0.265-0.937c4.27-14.079,8.756-28.577,18.179-39.878
		c3.777-4.53,8.322-8.509,11.168-13.675c4.403-7.999,3.845-17.194,3.462-26.319c0,0-18.459-8.648-24.067-6.674
		c-3.118,1.096-28.044,26.704-33.321,39.311c-5.81,13.874-5.976,31.036-17.134,41.125
		C89.171,353.816,133.035,358.676,133.035,358.676z"/>
	<g id="XMLID_409_">
		<path id="XMLID_415_" style="fill:#494B9A;" d="M285.88,427.325c2.673,6.15,1.961,12.098-2.672,16.916
			c-14.831,15.424-29.773,30.737-44.84,45.915c-3.745,3.772-8.476,5.608-13.88,4.107c-10.988-3.052-14.698-16.357-6.485-25.294
			c3.941-4.289,3.479-6.484-0.418-10.024c-5.237-4.757-10.13-9.963-14.799-15.32c-2.977-3.416-5.006-3.879-8.203-0.157
			c-4.501,5.239-9.544,9.988-14.417,14.881c-1.925,1.933-3.956,3.927-6.667,1.037c-2.407-2.566-1.678-4.806,0.56-6.968
			c0.64-0.618,1.155-1.416,1.873-1.9c5.665-3.821,4.211-6.792-0.047-11.177c-30.272-31.176-60.214-62.692-90.354-94.005
			c-7.924-8.232-13.162-18.062-12.283-29.501c0.591-7.689-2.3-11.972-7.005-16.586c-6.88-6.747-6.99-11.524,0.051-18.12
			c4.114-3.853,3.206-5.964-0.232-9.422c-12.047-12.115-23.803-24.539-35.669-36.846c-0.771-0.799-1.511-1.632-2.318-2.39
			c-2.576-2.42-5.039-5.302-1.885-8.55c3.1-3.192,5.503-0.025,7.656,2.185c12.545,12.882,25.218,25.636,37.519,38.761
			c3.854,4.112,6.251,5.37,10.541,0.328c5.253-6.175,10.036-5.811,15.745-0.186c2.054,2.023,4.184,4.001,5.978,6.254
			c1.559,1.957,3.208,2.649,5.658,2.346c13.851-1.712,25.113,3.423,34.767,13.499c28.724,29.983,57.588,59.825,86.448,89.669
			c2.744,2.837,4.945,7.418,8.64,7.771c3.15,0.301,5.136-4.356,7.693-6.749c2.402-2.248,4.853-2.326,6.998-0.175
			c2.332,2.339,0.744,4.506-1.074,6.383c-4.964,5.121-9.721,10.483-14.977,15.262c-3.62,3.291-3.164,5.379,0.111,8.477
			c5.471,5.174,10.712,10.637,15.717,16.292c2.814,3.18,4.807,3.739,7.745,0.177c2.929-3.551,6.792-5.698,11.138-5.383
			C279.065,418.708,283.412,421.646,285.88,427.325z M130.841,380.355c2.359,1.666,4.016-2.517,5.907-4.122
			c2.193-1.861,4.054-4.131,6.14-6.134c2.327-2.235,4.837-2.129,6.986,0.108c2.091,2.176,0.596,4.16-0.923,5.886
			c-1.472,1.673-3.066,3.234-4.622,4.828c-6.828,6.994-6.83,6.991-0.211,13.847c6.026,6.242,6.023,6.238,12.232-0.121
			c1.867-1.912,3.717-3.844,5.646-5.688c1.951-1.865,4.015-1.616,5.874,0.098c2.087,1.924,1.575,3.991-0.083,5.92
			c-1.016,1.183-2.126,2.282-3.21,3.401c-8.731,9.019-8.298,12.606,2.016,19.819c2.066,1.445,3.077,0.589,4.386-0.765
			c2.787-2.882,5.563-5.78,8.431-8.575c2.105-2.052,4.574-3.103,6.958-0.669c2.475,2.526,1.213,4.873-0.913,6.961
			c-0.952,0.935-1.933,1.855-2.782,2.886c-2.375,2.885-7.653,5.279-6.884,8.37c1.194,4.798,6.376,7.675,9.889,11.342
			c1.728,1.803,2.758-0.11,3.718-1.089c13.885-14.15,27.677-28.398,41.622-42.484c2.468-2.492,1.607-3.926-0.364-5.961
			c-20.688-21.364-41.339-42.766-61.922-64.237c-2.03-2.117-3.282-2.836-5.711-0.304c-13.729,14.311-27.64,28.437-41.476,42.64
			c-0.745,0.765-1.368,1.656-2.126,2.584C123.335,372.959,126.613,377.37,130.841,380.355z M90.669,339.446
			c2.404,2.709,4.201,3.224,6.733,0.186c2.42-2.903,5.129-5.585,7.93-8.103c2.161-1.943,4.916-2.622,7.008-0.108
			c1.836,2.207,0.992,4.644-0.913,6.64c-0.614,0.644-1.224,1.292-1.831,1.943c-9.69,10.4-9.627,10.328,0.74,19.832
			c2.077,1.904,3.251,2.131,5.304,0.019c13.802-14.203,27.684-28.325,41.635-42.372c2.119-2.133,1.874-3.508-0.085-5.484
			c-7.33-7.397-14.433-15.036-21.835-22.355c-3.826-3.783-8.585-6.279-13.791-7.362c-7.967-1.657-15.332-1.566-21.182,6.174
			c-4.141,5.479-9.331,10.179-14.392,14.836c-3.771,3.47-5.676,7.322-4.828,11.468C81.015,325.09,84.69,332.709,90.669,339.446z
			 M225.295,411.955c-6.114,6.178-12.106,12.491-18.368,18.505c-2.559,2.458-2.517,3.998-0.022,6.451
			c6.169,6.066,12.146,12.346,18.043,18.696c2.024,2.179,3.381,2.829,5.746,0.281c6.22-6.702,12.704-13.146,19.1-19.674
			c1.318-1.345,2.498-2.489,0.601-4.421c-6.846-6.969-13.592-14.043-20.393-21.059c-0.442-0.456-1.03-0.76-1.898-1.384
			C227.166,410.216,226.194,411.047,225.295,411.955z M230.834,485.344c1.114-0.667,2.067-1.665,2.995-2.613
			c13.871-14.176,27.708-28.389,41.598-42.545c3.271-3.334,5.647-6.944,1.602-10.988c-3.943-3.941-7.581-1.651-10.82,1.674
			c-13.841,14.208-27.694,28.404-41.537,42.609c-1.731,1.777-3.324,3.643-3.236,6.398
			C221.598,484.795,226.709,487.812,230.834,485.344z M76.403,298.349c2.623,2.07,3.721-1.281,5.088-2.602
			c4.774-4.614,9.199-9.617,14.02-14.175c4.52-4.273,0.157-6.077-1.902-8.46c-1.966-2.275-3.734-5.074-7.146-1.175
			c-4.671,5.337-9.863,10.188-14.791,15.289c-0.892,0.923-1.589,2.047-2.374,3.077C71.022,293.844,73.706,296.22,76.403,298.349z"/>
		<path id="XMLID_414_" style="fill:#6DC8E6;" d="M119.422,368.897c3.913,4.062,7.191,8.472,11.42,11.458
			c2.359,1.666,4.016-2.517,5.907-4.122c2.193-1.861,4.054-4.131,6.14-6.134c2.327-2.235,4.837-2.129,6.986,0.108
			c2.091,2.176,0.596,4.16-0.923,5.886c-1.472,1.673-3.066,3.234-4.622,4.828c-6.828,6.994-6.83,6.991-0.211,13.847
			c6.026,6.242,6.023,6.238,12.232-0.121c1.867-1.912,3.717-3.844,5.646-5.688c1.951-1.865,4.015-1.616,5.874,0.098
			c2.087,1.924,1.575,3.991-0.083,5.92c-1.016,1.183-2.126,2.282-3.21,3.401c-8.731,9.019-8.298,12.606,2.016,19.819
			c2.066,1.445,3.077,0.589,4.386-0.765c2.787-2.882,5.563-5.78,8.431-8.575c2.105-2.052,4.574-3.103,6.958-0.669
			c2.475,2.526,1.213,4.873-0.913,6.961c-0.952,0.935-1.933,1.855-2.782,2.886c-2.375,2.885-7.653,5.279-6.884,8.37
			c1.194,4.798,6.376,7.675,9.889,11.342c1.728,1.803,2.758-0.11,3.718-1.089c13.885-14.15,27.677-28.398,41.622-42.484
			c2.468-2.492,1.607-3.926-0.364-5.961c-20.688-21.364-41.339-42.766-61.922-64.237c-2.03-2.117-3.282-2.836-5.711-0.304
			c-13.729,14.311-27.64,28.437-41.476,42.64C120.803,367.078,120.18,367.969,119.422,368.897z"/>
		<path id="XMLID_413_" style="fill:#FFFEFF;" d="M81.163,314.76c-0.148,10.33,3.527,17.949,9.506,24.686
			c2.404,2.709,4.201,3.224,6.733,0.186c2.42-2.903,5.129-5.585,7.93-8.103c2.161-1.943,4.916-2.622,7.008-0.108
			c1.836,2.207,0.992,4.644-0.913,6.64c-0.614,0.644-1.224,1.292-1.831,1.943c-9.69,10.4-9.627,10.328,0.74,19.832
			c2.077,1.904,3.251,2.131,5.304,0.019c13.802-14.203,27.684-28.325,41.635-42.372c2.119-2.133,1.874-3.508-0.085-5.484
			c-7.33-7.397-14.433-15.036-21.835-22.355c-3.826-3.783-8.585-6.279-13.791-7.362c-7.967-1.657-15.332-1.566-21.182,6.174
			c-4.141,5.479-9.331,10.179-14.392,14.836C82.22,306.762,80.315,310.614,81.163,314.76z"/>
		<path id="XMLID_412_" style="fill:#FFFCFD;" d="M228.104,409.35c-0.938,0.866-1.91,1.697-2.809,2.605
			c-6.114,6.178-12.106,12.491-18.368,18.505c-2.559,2.458-2.517,3.998-0.022,6.451c6.169,6.066,12.146,12.346,18.043,18.696
			c2.024,2.179,3.381,2.829,5.746,0.281c6.22-6.702,12.704-13.146,19.1-19.674c1.318-1.345,2.498-2.489,0.601-4.421
			c-6.846-6.969-13.592-14.043-20.393-21.059C229.56,410.278,228.971,409.974,228.104,409.35z"/>
		<path id="XMLID_411_" style="fill:#FFFCFD;" d="M221.438,479.879c0.16,4.916,5.271,7.933,9.396,5.464
			c1.114-0.667,2.067-1.665,2.995-2.613c13.871-14.176,27.708-28.389,41.598-42.545c3.271-3.334,5.647-6.944,1.602-10.988
			c-3.943-3.941-7.581-1.651-10.82,1.674c-13.841,14.208-27.694,28.404-41.537,42.609
			C222.941,475.257,221.347,477.123,221.438,479.879z"/>
		<path id="XMLID_410_" style="fill:#FFFBFC;" d="M69.298,290.303c1.724,3.542,4.408,5.918,7.105,8.047
			c2.623,2.07,3.721-1.281,5.088-2.602c4.774-4.614,9.199-9.617,14.02-14.175c4.52-4.273,0.157-6.077-1.902-8.46
			c-1.966-2.275-3.734-5.074-7.146-1.175c-4.671,5.337-9.863,10.188-14.791,15.289C70.781,288.149,70.084,289.273,69.298,290.303z"
			/>
	</g>
	<path id="XMLID_408_" style="fill:#7CBA37;" d="M91.587,351.629c-2.106-0.085-1.269,10.048-0.193,11.861
		c9.247,15.571,21.977,28.743,34.879,41.452c4.063,4.002,8.192,8.018,11.288,12.808c5.472,8.463,7.328,18.677,10.671,28.184
		c1.035,2.942,2.294,5.941,4.623,8.015c2.329,2.074,7.014,3.9,8.609,1.221c3.391-5.694-1.927-13.006-2.045-19.573
		c3.054,3.886,6.108,7.773,9.162,11.659c1.266,1.611,2.748,3.348,4.783,3.586c2.397,0.28,4.576-1.798,5.194-4.131
		c0.617-2.333,0.039-4.807-0.701-7.104c-2.501-7.764-6.887-14.914-12.676-20.661c4.337,1.76,7.971,4.878,12.084,7.112
		s9.249,3.528,13.411,1.386c3.402-4.874-0.312-11.844-5.365-14.973c-5.053-3.129-10.426-6.252-16.303-7.143
		c-8.521-1.292-21.21,2.952-25.892-3.512C138.611,395.595,92.76,351.677,91.587,351.629z"/>
	<path id="XMLID_407_" style="fill:#7CBA37;" d="M258.543,267.983c2.296-1.656,15.502-1.972,21.401,0.001
		c3.281,1.097,6.286,2.824,9.178,4.66c11.956,7.591,19.179,19.833,28.217,30.229c10.332,11.884,27.532,47.739,27.385,52.821
		c-0.061,2.107-1.17,4.044-2.303,5.856c-9.728,15.571-23.119,28.743-36.691,41.452c-4.274,4.002-8.617,8.018-11.875,12.808
		c-5.756,8.463-7.708,18.677-11.226,28.184c-1.089,2.942-2.413,5.941-4.863,8.015s-6.32,2.941-9.057,1.221
		c1.307-6.449,2.027-13.006,2.151-19.573c-3.213,3.886-6.426,7.773-9.639,11.659c-1.332,1.611-2.891,3.348-5.032,3.586
		c-2.522,0.28-4.814-1.798-5.464-4.131c-0.649-2.333-0.041-4.807,0.737-7.104c2.631-7.764,7.245-14.914,13.334-20.661
		c-4.562,1.76-8.385,4.878-12.712,7.112c-4.326,2.234-9.73,3.528-14.108,1.386c-3.579-4.874,0.328-11.844,5.644-14.973
		c5.316-3.129,11.787-4.087,17.15-7.143c7.201-4.103,11.528-11.412,16.454-17.876c4.74-6.22,10.284-11.885,16.468-16.828
		c0.702-0.561,1.438-1.144,1.8-1.945c0.478-1.056,0.215-2.268-0.071-3.385c-1.142-4.459-2.544-8.853-3.944-13.244
		c-4.49-14.08-9.212-28.576-19.123-39.877c-3.974-4.53-8.753-8.509-11.747-13.676c-4.634-7.999-4.045-17.195-3.643-26.318
		L258.543,267.983z"/>
	<path id="XMLID_406_" style="fill:none;stroke:#6C9B2E;stroke-linecap:round;stroke-linejoin:round;stroke-miterlimit:10;" d="
		M279.944,267.984c12.145-2.65,31.151,22.389,38.862,33.805c9.136,13.527,26.065,48.823,25.919,53.905
		c-0.061,2.107-1.17,4.044-2.303,5.856c-9.728,15.571-23.119,28.743-36.691,41.452c-4.274,4.002-8.617,8.018-11.875,12.808
		c-5.756,8.463-7.708,18.677-11.226,28.184c-1.089,2.942-2.413,5.941-4.863,8.015c-2.45,2.074-6.32,2.941-9.057,1.221
		c1.307-6.449,2.027-13.006,2.151-19.573c-3.213,3.886-6.426,7.773-9.639,11.659c-1.332,1.611-2.891,3.348-5.032,3.586
		c-2.522,0.28-4.814-1.798-5.464-4.131c-0.65-2.333-0.041-4.807,0.737-7.104c2.631-7.764,7.245-14.914,13.334-20.661
		c-4.562,1.76-8.385,4.878-12.712,7.112c-4.326,2.234-9.73,3.528-14.108,1.386c-3.579-4.874,0.328-11.844,5.644-14.973
		s11.787-4.087,17.15-7.143c7.201-4.103,11.528-11.412,16.454-17.876c4.74-6.22,10.284-11.885,16.468-16.828
		c0.702-0.561,1.438-1.144,1.8-1.945c0.478-1.056,0.215-2.268-0.071-3.385c-1.142-4.459-2.544-8.853-3.944-13.244
		c-4.49-14.08-9.212-28.576-19.123-39.877c-3.974-4.53-9.029-8.359-11.747-13.676C247.215,270.342,273.866,269.31,279.944,267.984z"
		/>
	<g id="XMLID_403_">
		
			<rect id="XMLID_405_" x="281.184" y="298.448" transform="matrix(0.8787 -0.4774 0.4774 0.8787 -110.3869 179.2859)" style="fill:#E31627;" width="32.801" height="16.803"/>
		
			<rect id="XMLID_404_" x="292.201" y="298.448" transform="matrix(0.8787 -0.4774 0.4774 0.8787 -110.3869 179.2859)" style="fill:#FFFFFF;" width="10.767" height="16.803"/>
	</g>
	<path id="XMLID_364_" style="fill:none;stroke:#6C9B2E;stroke-linecap:round;stroke-linejoin:round;stroke-miterlimit:10;" d="
		M90.88,350.896c1.461,1.519-0.562,10.782,0.514,12.594c9.247,15.571,21.977,28.743,34.879,41.452
		c4.063,4.002,8.192,8.018,11.288,12.808c5.472,8.463,7.328,18.677,10.671,28.184c1.035,2.942,2.294,5.941,4.623,8.015
		c2.329,2.074,7.4,4.096,8.609,1.221c2.546-6.054-1.927-13.006-2.045-19.573c3.054,3.886,6.108,7.773,9.162,11.659
		c1.266,1.611,2.748,3.348,4.783,3.586c2.397,0.28,4.576-1.798,5.194-4.131c0.617-2.333,0.039-4.807-0.701-7.104
		c-2.501-7.764-6.887-14.914-12.676-20.661c4.337,1.76,7.971,4.878,12.084,7.112s9.249,3.528,13.411,1.386
		c3.402-4.874-0.312-11.844-5.365-14.973c-5.053-3.129-10.426-6.252-16.303-7.143c-8.521-1.292-21.21,2.952-25.892-3.512
		C138.611,395.595,87.205,347.074,90.88,350.896z"/>
	<g id="XMLID_477_">
		<ellipse id="XMLID_499_" style="fill:#7CBA37;" cx="215.496" cy="203.595" rx="168.502" ry="84.65"/>
		
			<ellipse id="XMLID_498_" style="fill:#7CBA37;stroke:#6C9B2E;stroke-width:0.1;stroke-miterlimit:10;" cx="215.496" cy="203.595" rx="168.502" ry="84.65"/>
		<g id="XMLID_495_">
			<path id="XMLID_497_" d="M162.582,212.093c1.789,25.016,23.871,44.963,51.526,44.963c27.657,0,49.737-19.947,51.526-44.963
				H162.582z"/>
			<path id="XMLID_496_" style="fill:#DA182E;" d="M175.068,240.467c0,0,18.575-18.522,39.04-5.892c0,0,31.225-14.231,39.034,5.892
				c0,0-12.434,16.068-39.034,16.59C214.108,257.056,190.881,257.687,175.068,240.467z"/>
		</g>
		<ellipse id="XMLID_494_" style="fill:#7CBA37;" cx="146.881" cy="115.897" rx="72.399" ry="68.878"/>
		<ellipse id="XMLID_493_" style="fill:#7CBA37;" cx="286.507" cy="115.897" rx="72.399" ry="68.878"/>
		<g id="XMLID_479_">
			<g id="XMLID_487_">
				<circle id="XMLID_492_" cx="139.914" cy="118.945" r="67.937"/>
				<circle id="XMLID_491_" style="fill:#FFFFFF;" cx="138.812" cy="118.945" r="44.793"/>
				<circle id="XMLID_490_" cx="137.061" cy="115.897" r="22.095"/>
				<circle id="XMLID_489_" style="fill:#FFFFFF;" cx="128.142" cy="98.452" r="7.113"/>
				<circle id="XMLID_488_" style="fill:#FFFFFF;" cx="135.256" cy="109.122" r="3.557"/>
			</g>
			<g id="XMLID_481_">
				<circle id="XMLID_486_" cx="292.043" cy="118.945" r="67.937"/>
				<circle id="XMLID_485_" style="fill:#FFFFFF;" cx="293.145" cy="118.945" r="44.793"/>
				<circle id="XMLID_484_" cx="294.896" cy="115.897" r="22.095"/>
				<circle id="XMLID_483_" style="fill:#FFFFFF;" cx="303.814" cy="98.452" r="7.113"/>
				<circle id="XMLID_482_" style="fill:#FFFFFF;" cx="296.701" cy="109.122" r="3.557"/>
			</g>
			<rect id="XMLID_480_" x="183.527" y="112.11" width="61.162" height="35.671"/>
		</g>
	</g>
</g>
</svg>
