<svg xmlns="http://www.w3.org/2000/svg" width="95.585" height="105.408" viewBox="0 0 95.585 105.408">
  <g id="Grupo_7" data-name="Grupo 7" transform="translate(726 -1360)">
    <rect id="Rectángulo_27" data-name="Rectángulo 27" width="0.848" height="19.508" transform="matrix(0.574, 0.819, -0.819, 0.574, -630.901, 1415.316)" fill="#6e717a"/>
    <rect id="Rectángulo_38" data-name="Rectángulo 38" width="0.424" height="19.508" transform="matrix(0.574, 0.819, -0.819, 0.574, -630.901, 1415.316)" fill="#fff" opacity="0.65"/>
    <ellipse id="Elipse_7" data-name="Elipse 7" cx="33" cy="25.5" rx="33" ry="25.5" transform="translate(-712 1407)" fill="#92de9c"/>
    <ellipse id="Elipse_13" data-name="Elipse 13" cx="28" cy="18.5" rx="28" ry="18.5" transform="translate(-707 1391)" fill="#83cc8d"/>
    <ellipse id="Elipse_6" data-name="Elipse 6" cx="38" cy="21" rx="38" ry="21" transform="translate(-717 1382)" fill="#92de9c"/>
    <circle id="Elipse_2" data-name="Elipse 2" cx="21" cy="21" r="21" transform="translate(-726 1371)" fill="#6e717a"/>
    <circle id="Elipse_10" data-name="Elipse 10" cx="21" cy="21" r="21" transform="translate(-674 1371)" fill="#6e717a"/>
    <circle id="Elipse_3" data-name="Elipse 3" cx="13" cy="13" r="13" transform="translate(-718 1379)" fill="#fff"/>
    <circle id="Elipse_9" data-name="Elipse 9" cx="13" cy="13" r="13" transform="translate(-666 1379)" fill="#fff"/>
    <circle id="Elipse_8" data-name="Elipse 8" cx="4" cy="4" r="4" transform="translate(-709 1388)" fill="#414141"/>
    <circle id="Elipse_11" data-name="Elipse 11" cx="4" cy="4" r="4" transform="translate(-657 1388)" fill="#414141"/>
    <rect id="Rectángulo_16" data-name="Rectángulo 16" width="12" height="10" transform="translate(-685 1387)" fill="#6e717a"/>
    <rect id="Rectángulo_18" data-name="Rectángulo 18" width="3" height="15" transform="translate(-680 1363)" fill="#4e515b"/>
    <rect id="Rectángulo_21" data-name="Rectángulo 21" width="1" height="15" transform="translate(-680 1363)" fill="#6e717a"/>
    <rect id="Rectángulo_19" data-name="Rectángulo 19" width="13" height="8" transform="translate(-680 1360)" fill="#ff5151"/>
    <rect id="Rectángulo_20" data-name="Rectángulo 20" width="5" height="8" transform="translate(-676 1360)" fill="#fff"/>
    <rect id="Rectángulo_24" data-name="Rectángulo 24" width="4.241" height="17.811" transform="matrix(0.574, 0.819, -0.819, 0.574, -681.182, 1448.452)" fill="#70cfd9"/>
    <rect id="Rectángulo_25" data-name="Rectángulo 25" width="11.026" height="2.544" rx="1.272" transform="matrix(0.574, 0.819, -0.819, 0.574, -696.329, 1454.916)" fill="#70cfd9"/>
    <rect id="Rectángulo_28" data-name="Rectángulo 28" width="7.633" height="3.393" rx="1.696" transform="matrix(0.574, 0.819, -0.819, 0.574, -647.222, 1422.603)" fill="#70cfd9"/>
    <rect id="Rectángulo_26" data-name="Rectángulo 26" width="12.722" height="3.393" rx="1.696" transform="matrix(0.574, 0.819, -0.819, 0.574, -650.838, 1422.028)" fill="#70cfd9"/>
    <path id="Trazado_3" data-name="Trazado 3" d="M-687.393,1414.1s8.334,3.628,15.687,0" transform="translate(1.05 -1)" fill="none" stroke="#64b76f" stroke-linecap="round" stroke-width="1"/>
    <rect id="Rectángulo_22" data-name="Rectángulo 22" width="16.115" height="35.622" transform="matrix(0.574, 0.819, -0.819, 0.574, -653.724, 1421.978)" fill="#70cfd9"/>
    <rect id="Rectángulo_36" data-name="Rectángulo 36" width="2.669" height="35.622" transform="matrix(0.574, 0.819, -0.819, 0.574, -653.724, 1421.978)" fill="#fff" opacity="0.64"/>
    <rect id="Rectángulo_23" data-name="Rectángulo 23" width="19.508" height="4.241" rx="2.12" transform="matrix(0.574, 0.819, -0.819, 0.574, -682.991, 1440.4)" fill="#70cfd9"/>
    <path id="Trazado_1" data-name="Trazado 1" d="M-689.422,1429.573s6.755,6.628,19.5,5.608,4.334,2.422,4.334,2.422,5.863,1.784,1.4,2.932,7.393,1.53,0,2.677-25.109.128-28.678-2.167" fill="#83cc8d"/>
    <path id="Trazado_2" data-name="Trazado 2" d="M-645.135,1434.588s-14.413,2.945-8.824,3.043-5.491,2.745,1.471,2.941-5.785,1.863,0,2.745,10.883-2.549,10.491-7.648c-.292-3.793-2.432-.538-3.516-1.082" transform="translate(-2.389 0.165)" fill="#83cc8d"/>
    <path id="Rectángulo_17" data-name="Rectángulo 17" d="M5,0H5a5,5,0,0,1,5,5V6a0,0,0,0,1,0,0H0A0,0,0,0,1,0,6V5A5,5,0,0,1,5,0Z" transform="translate(-684 1377)" fill="#4e515b"/>
    <path id="Rectángulo_37" data-name="Rectángulo 37" d="M5,0H5A0,0,0,0,1,5,0V6A0,0,0,0,1,5,6H0A0,0,0,0,1,0,6V5A5,5,0,0,1,5,0Z" transform="translate(-684 1377)" fill="#6e717a"/>
  </g>
</svg>
