<?xml version="1.0" encoding="iso-8859-1"?>
<!-- Generator: Adobe Illustrator 17.1.0, SVG Export Plug-In . SVG Version: 6.00 Build 0)  -->
<!DOCTYPE svg PUBLIC "-//W3C//DTD SVG 1.1//EN" "http://www.w3.org/Graphics/SVG/1.1/DTD/svg11.dtd">
<svg version="1.1" fill="#ffffff" xmlns="http://www.w3.org/2000/svg" xmlns:xlink="http://www.w3.org/1999/xlink" x="0px" y="0px"
	 viewBox="0 0 490 490" style="enable-background:new 0 0 490 490;" xml:space="preserve">
<g>
	<g>
		<path d="M262.096,490c-14.151,0-27.883-2.774-40.818-8.245c-12.487-5.281-23.7-12.841-33.326-22.468
			c-9.626-9.626-17.185-20.838-22.468-33.326c-5.47-12.933-8.244-26.666-8.244-40.816c0-16.766,4.058-33.445,11.733-48.233
			c6.607-12.729,15.9-24.11,27.054-33.183V49.967C196.028,22.415,218.443,0,245.996,0h32.201c27.552,0,49.968,22.415,49.968,49.967
			v253.762c11.154,9.072,20.447,20.453,27.054,33.183c7.676,14.788,11.733,31.468,11.733,48.233c0,14.15-2.773,27.884-8.245,40.816
			c-5.282,12.488-12.84,23.7-22.467,33.326c-9.626,9.627-20.839,17.186-33.327,22.468C289.981,487.226,276.248,490,262.096,490z
			 M245.996,20.578c-16.205,0-29.389,13.184-29.389,29.389V308.78c0,3.281-1.565,6.366-4.213,8.304
			c-21.649,15.84-34.574,41.283-34.574,68.06c0,46.47,37.806,84.276,84.277,84.276c46.471,0,84.277-37.807,84.277-84.276
			c0-26.777-12.925-52.221-34.575-68.06c-2.648-1.938-4.213-5.023-4.213-8.304V49.967c0-16.205-13.184-29.389-29.389-29.389H245.996
			z"/>
	</g>
	<g>
		<path d="M157.262,295.287c0,4.661-3.776,8.438-8.436,8.438h-17.341c-4.66,0-8.437-3.776-8.437-8.438v-9.191
			c0-4.658,3.777-8.436,8.437-8.436h17.341c4.66,0,8.436,3.778,8.436,8.436V295.287z"/>
	</g>
</g>
</svg>
